<mxfile host="65bd71144e">
    <diagram id="VkFIZnbUAT84jkwQA_jU" name="Page-1">
        <mxGraphModel dx="1361" dy="596" grid="1" gridSize="10" guides="1" tooltips="1" connect="1" arrows="1" fold="1" page="1" pageScale="1" pageWidth="850" pageHeight="1100" math="0" shadow="0">
            <root>
                <mxCell id="0"/>
                <mxCell id="1" parent="0"/>
                <mxCell id="2" value="" style="shape=mxgraph.signs.healthcare.brain;html=1;pointerEvents=1;fillColor=#000000;strokeColor=none;verticalLabelPosition=bottom;verticalAlign=top;align=center;fontSize=17;" vertex="1" parent="1">
                    <mxGeometry x="348" y="230" width="154" height="125" as="geometry"/>
                </mxCell>
                <mxCell id="4" value="Finanční gramotnost" style="ellipse;shape=cloud;whiteSpace=wrap;html=1;fontSize=17;" vertex="1" parent="1">
                    <mxGeometry x="530" y="130" width="240" height="130" as="geometry"/>
                </mxCell>
                <mxCell id="6" value="Nekomerční řešení" style="ellipse;shape=cloud;whiteSpace=wrap;html=1;fontSize=17;" vertex="1" parent="1">
                    <mxGeometry x="524" y="290" width="240" height="140" as="geometry"/>
                </mxCell>
                <mxCell id="7" value="Analýza výpisů" style="ellipse;shape=cloud;whiteSpace=wrap;html=1;fontSize=17;" vertex="1" parent="1">
                    <mxGeometry x="210" y="335" width="240" height="145" as="geometry"/>
                </mxCell>
                <mxCell id="8" value="Správa financí" style="ellipse;shape=cloud;whiteSpace=wrap;html=1;fontSize=17;" vertex="1" parent="1">
                    <mxGeometry x="50" y="160" width="240" height="140" as="geometry"/>
                </mxCell>
                <mxCell id="9" value="AI Kategorizace" style="ellipse;shape=cloud;whiteSpace=wrap;html=1;fontSize=17;" vertex="1" parent="1">
                    <mxGeometry x="290" y="60" width="250" height="140" as="geometry"/>
                </mxCell>
            </root>
        </mxGraphModel>
    </diagram>
</mxfile>